<svg xmlns:xlink="http://www.w3.org/1999/xlink" viewBox="0 0 85 32" fill="currentColor" xmlns="http://www.w3.org/2000/svg" width="85"  height="32" ><path d="M18.583 16.785c0 5.523-3.501 9.62-8.256 9.62a6.5 6.5 0 0 1-4.113-1.328.991.991 0 0 0-1.605.774V32H0V7.625h2.924l.141.22a2.26 2.26 0 0 0 1.506.991 2.269 2.269 0 0 0 1.754-.422 6.628 6.628 0 0 1 4.002-1.216c4.755 0 8.256 4.098 8.256 9.587Zm-4.716.036c0-3.53-1.932-5.525-4.647-5.525-2.716 0-4.68 1.995-4.68 5.525 0 3.53 1.916 5.496 4.68 5.496 2.763 0 4.647-1.969 4.647-5.484v-.012ZM25.474 1.032v24.946h-4.897V1.032h4.896ZM27.34 2.78c0-1.712 1.323-2.78 2.968-2.78 1.643 0 2.967 1.068 2.967 2.78 0 1.71-1.323 2.743-2.967 2.743-1.645 0-2.968-.997-2.968-2.744Zm5.254 4.845v18.353h-4.611V7.625h4.61Zm17.275 0h3.14v18.353h-3.14a2.225 2.225 0 0 0-2.376-1.113 2.23 2.23 0 0 0-.855.36 6.636 6.636 0 0 1-3.954 1.18c-4.72 0-8.257-4.097-8.257-9.62 0-5.523 3.538-9.587 8.257-9.587a6.534 6.534 0 0 1 3.923 1.195 2.234 2.234 0 0 0 3.262-.768Zm-1.395 9.16c0-3.53-1.896-5.496-4.647-5.496-2.752 0-4.683 1.96-4.683 5.496 0 3.537 1.931 5.523 4.683 5.523 2.751 0 4.644-1.996 4.644-5.523h.003ZM71.5 14.147v11.831h-4.615V14.921c0-2.39-1.36-3.742-3.217-3.742-2.18 0-3.753 1.462-3.753 3.993v10.796H55.31V7.616h2.8l.167.22a2.218 2.218 0 0 0 1.463.872 2.228 2.228 0 0 0 1.653-.418 5.824 5.824 0 0 1 3.575-1.092c3.744 0 6.533 2.745 6.533 6.949Zm12.944-2.851h-4.11v8.089c0 1.747.72 2.629 2.157 2.629h1.965v3.954h-3.163a5.566 5.566 0 0 1-3.93-1.623 5.534 5.534 0 0 1-1.628-3.918v-9.131H72.38v-3.67h1.692a1.68 1.68 0 0 0 1.186-.49 1.67 1.67 0 0 0 .492-1.183V2.75h4.61v4.863h4.11l-.026 3.683Z" fill="#19242A"></path></svg>