<svg width="24" height="24" viewBox="0 0 24 24" fill="none" xmlns="http://www.w3.org/2000/svg">
<g clip-path="url(#clip0_728_31506)">
<rect x="17.3335" width="24" height="17.3333" rx="2" transform="rotate(90 17.3335 0)" fill="#E4D7CF"/>
<path fill-rule="evenodd" clip-rule="evenodd" d="M14.1426 19.4497L13.6423 19.4497C13.4873 19.4497 13.3714 19.4913 13.3033 19.6433L12.3418 21.783L13.0216 21.783C13.0216 21.783 13.1328 21.4953 13.158 21.4322C13.2323 21.4322 13.8926 21.4332 13.9871 21.4332C14.0064 21.5149 14.0659 21.783 14.0659 21.783L14.6666 21.783L14.1426 19.4497M13.3443 20.9546C13.3978 20.8201 13.6022 20.3019 13.6022 20.3019C13.5984 20.3081 13.6554 20.1668 13.688 20.0791L13.7318 20.2804C13.7318 20.2804 13.8558 20.8377 13.8817 20.9546L13.3443 20.9546" fill="#201C1C"/>
<path fill-rule="evenodd" clip-rule="evenodd" d="M12.4785 19.4804C12.3521 19.4333 12.154 19.3828 11.9066 19.3828C11.2762 19.3828 10.8321 19.6982 10.8283 20.1501C10.8248 20.4842 11.1454 20.6706 11.3874 20.7818C11.6357 20.8958 11.7192 20.9684 11.718 21.0702C11.7165 21.2261 11.5197 21.2973 11.3363 21.2973C11.0809 21.2973 10.9453 21.262 10.7358 21.1752L10.6535 21.1383L10.564 21.6588C10.713 21.7237 10.9886 21.7799 11.2747 21.7828C11.9454 21.7828 12.3808 21.4711 12.3858 20.9884C12.3882 20.724 12.2181 20.5226 11.8501 20.3567C11.6271 20.2492 11.4905 20.1774 11.4919 20.0685C11.4919 19.9718 11.6075 19.8685 11.8573 19.8685C12.066 19.8653 12.2171 19.9104 12.3348 19.9576L12.392 19.9844L12.4785 19.4804" fill="#201C1C"/>
<path fill-rule="evenodd" clip-rule="evenodd" d="M9.50635 21.7952L9.90093 19.4619L10.532 19.4619L10.1371 21.7952L9.50635 21.7952" fill="#201C1C"/>
<path d="M7.71143 19.4497C7.85109 19.4549 7.96446 19.4991 8.00342 19.647L8.229 20.7202L8.29541 21.0435L8.92529 19.4507L9.60693 19.4507L8.59424 21.7827L7.91357 21.7827L7.34229 19.7544C7.14457 19.6459 6.91882 19.559 6.6665 19.4985L6.67432 19.4497L7.71143 19.4497Z" fill="#201C1C"/>
</g>
<defs>
<clipPath id="clip0_728_31506">
<rect width="24" height="24" fill="white"/>
</clipPath>
</defs>
</svg>
